<?xml version="1.0" encoding="UTF-8"?>
<svg id="Layer_2" data-name="Layer 2" xmlns="http://www.w3.org/2000/svg" viewBox="0 0 1162.18 903">
  <defs>
    <style>
      .cls-1 {
        fill: #fff;
        stroke: #29abe2;
        stroke-miterlimit: 10;
        stroke-width: 3px;
      }
    </style>
  </defs>
  <g id="Layer_1-2" data-name="Layer 1">
    <path class="cls-1" d="M716.43,401.5l86.67-299.99c14.46-50.06-23.1-100.01-75.2-100.01h-407.04c-34.87,0-65.53,23.06-75.2,56.55l-12.55,43.45-57.78,200h0c59.23,0,111.32-39.17,127.75-96.07l30.03-103.93h370l-86.67,300H250.52c-61.65,0-115.86,40.77-132.97,100h0S1.99,901.5,1.99,901.5h465.92c61.64,0,115.85-40.77,132.96-99.99h0s86.67-300.01,86.67-300.01h370l-58.92,203.93c-13.89,48.09,22.19,96.07,72.24,96.07h0l86.67-300h0c14.46-50.06-23.11-100-75.21-100h-365.91ZM422.71,801.5H130.88l64.97-224.9c12.85-44.48,53.57-75.1,99.87-75.1h291.82l-64.97,224.9c-12.85,44.48-53.57,75.1-99.87,75.1Z"/>
  </g>
</svg>